<svg height="249.5" viewBox="0 0 600 249.5" width="600" xmlns="http://www.w3.org/2000/svg" xmlns:xlink="http://www.w3.org/1999/xlink"><clipPath id="a"><path d="m2.153 72.239h475.964v88.552h-475.964z"/></clipPath><clipPath id="b"><path d="m-63.992 6.58h608.255v219.868h-608.255z"/></clipPath><clipPath id="c" clip-path="url(#b)"><path d="m-63.992 6.58h608.255v219.868h-608.255z"/></clipPath><path d="m2.306 0h598.194v400h-598.194z" fill="#fafafa"/><g clip-path="url(#a)"><path clip-path="url(#c)" d="m93.24 113.893h-2.641c-5.409 0-9.302 3.67-9.302 9.022 0 4.092 1.188 8.71 6.489 8.71 4.976 0 5.949-3.675 5.949-7.661v-9.636c0 .001.146-.435-.495-.435m20.699 20.875h2.378c.836 0 .673.583.673.583v5.143c0 .836-.801.575-.801.575h-20.507s-.42.061-.572-.577c-.289-1.226-.673-2.626-.865-3.721-.194-1.094-.94-.02-.94-.02-4.224 3.368-8.789 5.889-14.604 5.889-9.844 0-17.2-6.189-17.2-15.95 0-12.167 7.789-19.093 17.416-19.093l14.646-.364s.173-.039.173-.618v-1.643c0-4.3-2.379-6.101-7.139-6.101-6.082 0-8.911 2.207-11.739 5.688 0 0-.183.413-.763.155-.58-.255-5.798-2.086-5.798-2.086s-.457-.029-.2-.673c.256-.642 6.521-16.033 6.521-16.033s.048-.538.562-.344c.763.286 4.826 1.532 5.531 1.789.644.258.377.797.377.797s-.201.705-.446 1.288c-.514 1.222.358.702.358.702 4.034-1.558 8.131-2.177 12.413-2.177 12.115 0 20.12 5.036 20.12 17.417v28.414c-.002-.001-.108.96.406.96m1.229-42.91c8.104-2.32 15.358-7.742 18.765-15.329 0 0 .062-.567.639-.439.581.127 4.706.835 5.596 1.013.644.127.372.514.372.514-.492 2.498-.649 5.483-.649 7.736v3.774c0 .58.406.422.406.422h8.808c.513 0 .316.477.316.477s-1.311 6.486-1.466 7.268c-.13.643-.587.438-.587.438h-7.007c-.578 0-.469.396-.469.396v29.925c0 3.253 2.812 3.889 4.432 3.889 1.637 0 1.922.034 3.191-.614 0 0 .457-.423.649.222.157.524 1.96 4.768 2.148 5.192.235.525-.23.682-.23.682-6.945 4.979-7.582 5.214-16.356 5.214-9.844 0-13.63-4.721-13.63-13.85v-30.66s.145-.396-.369-.396h-4.564s-.368.204-.368-.504v-4.822c-.002-.449.373-.548.373-.548m145.82 23.395c0-16.891 13.308-27.277 30.504-27.277 17.31 0 30.611 10.386 30.611 27.277 0 16.997-13.302 27.386-30.611 27.386-17.197 0-30.504-10.389-30.504-27.386m19.795-7.446c0 7.554 3.246 26.861 14.169 26.861 5.843 0 7.358-6.193 7.358-11.861 0-7.554-3.248-26.857-14.173-26.857-7.354 0-7.354 7.973-7.354 11.857m102.127 33.261h-26.614s-.461.068-.461-.382v-5.464c0-.514.591-.454.591-.454h3.148c.515 0 .371-.382.371-.382v-29.204c0-3.04-2.812-4.616-5.73-4.616-3.494 0-6.012 1.894-8.479 3.972 0 0-.391.277-.391.791v29.057s-.106.382.409.382h3.277s.532-.189.532.454v5.464c0 .45-.404.382-.404.382h-27.062s-.334.196-.334-.511v-5.336c0-.643.334-.454.334-.454h3.086c.512 0 .365-.446.365-.446v-34.392s.262-.633-.51-.375c-.771.256-2.748.762-2.748.762s-.527.255-.527-.323v-5.272c0-.578.461-.572.461-.572l22.824-6.038s.512-.269.512.311v7.521c0 .836.521.137.521.137 5.343-4.069 10.745-8.104 17.975-8.104 13.739 0 15.687 9.128 15.687 14.899v31.382s-.048.51.403.51h2.828s.445-.125.445.454v5.336c.001.707-.509.511-.509.511m27.456-52.949-22.753 6.25s-.416.031-.416.481v5.079c0 .706.666.406.666.406s1.474-.305 2.766-.512c.648-.106.463.492.463.942v33.492s.176.51-.466.51h-3.217s-.429-.189-.429.518v5.335c0 .643.429.447.429.447h26.616c.643 0 .427-.511.427-.511s-.011-4.439 0-5.271c.012-.71-.492-.518-.492-.518h-2.637c-.642 0-.438-.446-.438-.446v-45.835c.001-.643-.519-.367-.519-.367m-8.242-15.88c4.651 0 9.625 1.153 9.625 6.609 0 6.61-8.543 8.918-13.952 8.918-4.324 0-7.354-2.202-7.354-6.504-.002-5.142 7.028-9.023 11.681-9.023m-219.666 41.647h-2.641c-5.407 0-9.302 3.671-9.302 9.021 0 4.093 1.19 8.71 6.49 8.71 4.978 0 5.948-3.673 5.948-7.661v-9.632c0 .001.148-.438-.495-.438m20.701 20.878h2.376c.836 0 .675.582.675.582v5.142c0 .833-.803.573-.803.573h-20.507s-.42.062-.57-.575c-.291-1.228-.672-2.628-.864-3.721-.195-1.093-.942-.021-.942-.021-4.222 3.37-8.789 5.89-14.604 5.89-9.844 0-17.2-6.189-17.2-15.946 0-12.17 7.789-19.095 17.417-19.095l14.644-.366s.173-.04.173-.616v-1.641c0-4.304-2.377-6.103-7.137-6.103-6.082 0-8.913 2.209-11.74 5.688 0 0-.185.414-.764.155-.578-.255-5.796-2.086-5.796-2.086s-.458-.029-.2-.671c.256-.644 6.519-16.035 6.519-16.035s.05-.536.563-.344c.761.286 4.826 1.532 5.531 1.79.644.256.376.796.376.796s-.201.704-.445 1.287c-.514 1.222.356.702.356.702 4.036-1.558 8.131-2.177 12.412-2.177 12.116 0 20.122 5.036 20.122 17.417v28.414c0-.001-.108.961.408.961m20.972-33.149c0 5.667 3.353 21.508 11.467 21.508 4.001 0 5.625-1.995 5.625-7.03 0-5.664-3.352-21.506-11.466-21.506-4.002-.001-5.626 1.993-5.626 7.028m8.44 42.067c-.793.832-1.625 4.304-1.625 6.618 0 2.622 1.407 5.454 4.436 5.454 2.705 0 4.108-1.26 4.108-3.88 0-4.637-2.598-6.273-6.159-8.441 0-.001-.282-.256-.76.249m21.553-54.157c-1.114-.668-1.24-.837-3.493-.709-1.296.073-1.944 1.153-1.944 2.31 0 2.098 10.166 5.35 10.166 17.625 0 16.3-15.161 19.718-28.111 22.918 0 0-1.472.303.007.444 8.679.836 26.374 3.048 26.374 14.516 0 11.433-15.683 14.164-22.174 14.164-9.519 0-19.253-1.996-19.253-10.493 0-4.882 5.264-8.153 9.775-8.921 0 0 1.35-.206.004-.375-1.538-.193-10.128-.948-13.118-.337 0 0-.664.095-.857-.42-.273-.728-2.027-5.219-2.184-5.596-.32-.771.34-.807.34-.807 6.395-1.03 11.981-4.407 14.66-5.182 1.428-.415 0-.625 0-.625-9.032-1.593-17.814-7.743-17.814-18.446 0-15.107 12.331-21.613 24.122-21.613 5.441 0 8.545.85 11.436 1.296 0 0 .438.193.63-.45.275-.915 1.13-3.469 1.13-3.469 1.296-3.882 3.245-5.456 9.084-5.456 1.111 0 2.293.153 3.425.263 0 0 .585-.159.455.546-.104.584-2.003 8.162-2.117 8.616-.193.772-.543.201-.543.201m192.16 24.361h-2.636c-5.41 0-9.308 3.671-9.308 9.021 0 4.093 1.19 8.71 6.491 8.71 4.977 0 5.95-3.673 5.95-7.661v-9.632c.002.001.148-.438-.497-.438m20.701 20.878h2.378c.836 0 .675.582.675.582v5.142c0 .833-.803.573-.803.573h-20.508s-.418.062-.567-.575c-.293-1.228-.676-2.628-.868-3.721-.194-1.093-.942-.021-.942-.021-4.221 3.37-8.784 5.89-14.604 5.89-9.844 0-17.196-6.189-17.196-15.946 0-12.17 7.785-19.095 17.413-19.095l14.645-.366s.177-.04.177-.616v-1.641c0-4.304-2.381-6.103-7.142-6.103-6.078 0-8.909 2.209-11.737 5.688 0 0-.184.414-.766.155-.575-.255-5.798-2.086-5.798-2.086s-.455-.029-.195-.671c.258-.644 6.52-16.035 6.52-16.035s.048-.536.562-.344c.761.286 4.824 1.532 5.532 1.79.644.256.376.796.376.796s-.203.704-.449 1.287c-.513 1.222.359.702.359.702 4.035-1.558 8.131-2.177 12.409-2.177 12.117 0 20.121 5.036 20.121 17.417v28.414c0-.001-.106.961.408.961m-441.251-34.321v25.757c0 4.616 1.514 8.5 6.707 8.5 6.491 0 9.303-3.986 9.303-15.74 0-18.884-9.518-19.828-12.871-19.828l-2.562.429c-.001.001-.577.173-.577.882m.523-7.707c4.619-2.772 8.311-4.725 13.105-4.725 12.44 0 22.175 10.072 22.175 25.075 0 14.793-9.302 29.589-25.311 29.589-3.081 0-7.139-.378-10.041-1.857 0 0-.452-.197-.452.318v9.064s.005.864.647.864h5.785s.599-.029.599.678v4.886c0 .515-.533.736-.533.736h-29.25s-.829.036-.829-.671v-4.95c0-.771.637-.678.637-.678h2.443c.708 0 .708-.736.708-.736v-50.271c0-.707-.643-.45-.643-.45l-2.633.657s-.511.243-.511-.465v-5.271c0-.578.45-.548.45-.548l22.622-5.82s.51-.187.51.391v3.92c-.001.514.522.264.522.264"/><path clip-path="url(#c)" d="m476.099 88.939c-1.343 1.351-2.97 2.026-4.881 2.026-1.908 0-3.531-.675-4.872-2.026-1.333-1.342-1.998-2.971-1.998-4.882 0-1.895.675-3.512 2.021-4.857 1.339-1.339 2.954-2.005 4.851-2.005 1.911 0 3.538.667 4.881 2.005 1.351 1.336 2.02 2.957 2.02 4.857-.004 1.905-.673 3.533-2.022 4.882m-9.075-9.061c-1.156 1.155-1.736 2.551-1.736 4.188 0 1.647.577 3.052 1.727 4.215 1.156 1.161 2.56 1.74 4.213 1.74s3.059-.58 4.216-1.74c1.156-1.163 1.73-2.568 1.73-4.215 0-1.637-.574-3.032-1.73-4.188-1.164-1.161-2.566-1.743-4.216-1.743-1.64.001-3.04.583-4.204 1.743m4.069.374c.944 0 1.639.089 2.074.271.787.328 1.18.968 1.18 1.922 0 .676-.243 1.177-.736 1.497-.262.168-.625.29-1.089.365.584.096 1.012.34 1.279.741.271.4.401.792.401 1.172v.552c0 .176.008.364.021.563.015.199.037.331.071.393l.051.094h-1.245c-.007-.026-.015-.05-.019-.073-.006-.026-.014-.055-.021-.086l-.026-.243v-.598c0-.872-.245-1.448-.729-1.729-.288-.161-.792-.243-1.515-.243h-1.073v2.971h-1.286v-7.57h2.662zm1.453 1.221c-.346-.187-.896-.279-1.657-.279h-1.171v2.715h1.239c.578 0 1.014-.057 1.305-.167.533-.206.799-.595.799-1.171 0-.548-.172-.911-.515-1.098"/></g></svg>